<svg width="45" height="46" viewBox="0 0 45 46" fill="none" xmlns="http://www.w3.org/2000/svg">
<path d="M22.5 45.4018C19.1518 45.4018 16.0937 44.8214 13.3259 43.6607C10.558 42.5 8.16964 40.8705 6.16071 38.7723C4.19643 36.6741 2.67857 34.2634 1.60714 31.5402C0.535709 28.7723 0 25.8259 0 22.7009C0 19.5312 0.535709 16.5848 1.60714 13.8616C2.67857 11.1384 4.19643 8.72768 6.16071 6.62946C8.16964 4.53125 10.558 2.90178 13.3259 1.74107C16.0937 0.580356 19.1518 0 22.5 0C25.8482 0 28.9062 0.580356 31.6741 1.74107C34.442 2.90178 36.808 4.53125 38.7723 6.62946C40.7813 8.72768 42.3214 11.1384 43.3928 13.8616C44.4643 16.5848 45 19.5312 45 22.7009C45 25.8259 44.4643 28.7723 43.3928 31.5402C42.3214 34.2634 40.7813 36.6741 38.7723 38.7723C36.808 40.8705 34.442 42.5 31.6741 43.6607C28.9062 44.8214 25.8482 45.4018 22.5 45.4018Z" fill="#6C4E4E"/>
<path fill-rule="evenodd" clip-rule="evenodd" d="M13.2833 15.1316C13.9092 16.1646 14.3479 17.565 14.5739 18.8072C14.7767 19.9219 14.9112 21.1083 14.6721 22.092C14.549 22.5985 14.3226 23.0714 13.942 23.45C13.561 23.829 13.061 24.0781 12.447 24.1978C11.3364 24.4143 10.3937 24.0592 9.63812 23.4109C8.89943 22.7771 8.33815 21.8654 7.91994 20.9309C7.32295 19.5969 7.29257 18.0285 7.73226 16.6797C8.17285 15.3282 9.10683 14.1411 10.4886 13.6575C11.0818 13.4498 11.6432 13.5575 12.125 13.8605C12.5878 14.1515 12.9709 14.6159 13.2833 15.1316ZM14.7845 24.7648C16.9543 23.2735 19.6107 22.1573 21.9272 22.4484C23.1776 22.6056 24.2074 23.3807 25.041 24.3963C25.8747 25.412 26.5522 26.7154 27.1 28.0384C28.0079 30.2308 28.5982 32.5789 28.9384 33.9323C29.0081 34.2094 29.0673 34.4449 29.1166 34.6287C29.2815 35.2441 29.3677 35.9664 29.2995 36.6457C29.2321 37.3168 29.0039 38.0275 28.4603 38.5019C27.8976 38.9931 27.1191 39.1272 26.1746 38.8984C25.2409 38.6722 24.0857 38.0815 22.6592 37.0329C19.9457 35.0383 17.9658 34.6469 16.4973 34.7139C15.7517 34.748 15.1146 34.901 14.5378 35.0546C14.4725 35.072 14.4066 35.0899 14.3403 35.1079C13.8555 35.2394 13.3525 35.3758 12.9046 35.3758C11.8829 35.3758 10.8608 34.8404 10.2633 33.8545C9.65725 32.8544 9.53402 31.4735 10.1458 29.8673C10.4634 29.0337 11.0916 28.1288 11.8868 27.261C12.6884 26.3862 13.6878 25.5186 14.7845 24.7648Z" fill="#FDAB81"/>
<path fill-rule="evenodd" clip-rule="evenodd" d="M22.0801 8.16883C22.6891 9.42988 22.9803 11.1426 22.9803 12.4517C22.9803 13.7613 22.72 15.2078 22.116 16.3408C21.503 17.4906 20.496 18.3715 19.0465 18.3295C17.7288 18.2912 16.791 17.5476 16.1763 16.5403C15.5737 15.5526 15.2642 14.2929 15.1467 13.1C14.8551 10.1402 16.4144 7.8945 18.8116 6.63581C19.523 6.26232 20.2098 6.28025 20.8048 6.63016C21.3628 6.95826 21.7768 7.54067 22.0801 8.16883ZM30.2166 9.10716C30.7776 9.09351 31.3492 9.24047 31.7724 9.6849C32.1507 10.0821 32.4401 10.7319 32.6388 11.4375C32.8429 12.1625 32.9723 13.0223 32.9844 13.9056C33.0082 15.6401 32.5772 17.6365 31.1606 18.7936C30.2446 19.5419 29.1702 20.1275 28.0718 20.3084C26.9555 20.4922 25.8146 20.2545 24.8486 19.3579C23.7647 18.352 23.5147 17.0168 23.722 15.7159C23.9258 14.437 24.5711 13.153 25.3328 12.0968C26.1073 11.023 27.3075 10.081 28.47 9.5562C29.0525 9.29323 29.6565 9.12079 30.2166 9.10716ZM35.4307 20.6966L35.4719 20.711C36.1319 20.942 36.4851 21.5244 36.6334 22.1513C36.7795 22.769 36.7496 23.4974 36.6114 24.2147C36.3367 25.6411 35.5888 27.2429 34.5382 28.182C33.6708 28.9574 32.72 29.5766 31.7265 29.7607C30.6933 29.9523 29.676 29.6612 28.754 28.7503C27.6709 27.6803 27.5315 26.2575 27.8585 24.9426C28.1817 23.6426 28.969 22.3778 29.8613 21.4408C30.8047 20.4502 31.7862 20.0931 32.776 20.0931C33.707 20.0931 34.6201 20.4128 35.4307 20.6966Z" fill="#FDAB81"/>
</svg>
