<svg width="250" height="36" viewBox="0 0 250 36" fill="none" xmlns="http://www.w3.org/2000/svg">
<path d="M230.436 35.2936L238.78 24.4843L231.005 14.3704H234.007L240.202 22.5879L246.429 14.3704H249.431L241.656 24.4843L250 35.2936H246.997L240.202 26.3175L233.438 35.2936H230.436Z" fill="#FDAB81"/>
<path d="M219.311 35.5464C217.583 35.5464 216.045 35.1672 214.697 34.4086C213.369 33.629 212.326 32.5438 211.568 31.1532C210.809 29.7625 210.43 28.1401 210.43 26.2859V14.3704H212.8V26.3491C212.8 27.9715 213.106 29.2884 213.717 30.2998C214.349 31.3112 215.16 32.0592 216.15 32.5439C217.162 33.0074 218.215 33.2392 219.311 33.2392C220.428 33.2392 221.481 33.0074 222.472 32.5439C223.462 32.0592 224.273 31.3112 224.905 30.2998C225.537 29.2884 225.853 27.9715 225.853 26.3491V14.3704H228.224V26.2859C228.224 28.119 227.845 29.7309 227.086 31.1216C226.328 32.5122 225.274 33.5974 223.925 34.377C222.598 35.1566 221.06 35.5464 219.311 35.5464Z" fill="#FDAB81"/>
<path d="M188.062 35.2936L196.944 14.3704H199.915L208.796 35.2936H206.173L203.612 29.2252H193.246L190.686 35.2936H188.062ZM194.162 27.0444H202.696L198.429 16.8356L194.162 27.0444Z" fill="#FDAB81"/>
<path d="M165.064 35.2936V14.3704H167.813L175.304 24.2947L182.668 14.3704H185.418V35.2936H183.048V17.9735L175.304 27.9294L167.434 17.9735V35.2936H165.064Z" fill="#FDAB81"/>
<path d="M157.563 35.2936V14.3704H159.934V35.2936H157.563Z" fill="#FDAB81"/>
<path d="M134.384 35.2936V14.3704H137.133L150.06 31.9749V14.3704H152.431V35.2936H149.681L136.754 17.6258V35.2936H134.384Z" fill="#FDAB81"/>
<path d="M131.351 13.5486L128.57 20.2807H126.421L128.254 13.5486H131.351Z" fill="#FDAB81"/>
<path d="M109.499 35.7149C106.058 35.7149 103.266 35.2583 101.124 34.3453C98.9814 33.3971 97.366 32.0977 96.2773 30.4472C95.2238 28.7966 94.6092 26.9354 94.4337 24.8634H98.5424C98.6478 26.5491 99.2097 27.9187 100.228 28.9722C101.247 29.9906 102.581 30.7457 104.232 31.2373C105.917 31.729 107.761 31.9748 109.763 31.9748C112.712 31.9748 115.048 31.4656 116.769 30.4472C118.489 29.3936 119.35 27.8485 119.35 25.8116C119.35 24.5825 118.911 23.5992 118.033 22.8617C117.19 22.0891 116.049 21.457 114.609 20.9654C113.204 20.4737 111.659 20.0347 109.973 19.6484C108.288 19.227 106.584 18.788 104.864 18.3315C103.178 17.875 101.615 17.2955 100.175 16.5932C98.7707 15.8908 97.6294 14.9953 96.7514 13.9067C95.9086 12.7829 95.4872 11.3606 95.4872 9.63985C95.4872 6.7953 96.5758 4.47753 98.7531 2.68652C100.966 0.895505 104.249 0 108.604 0C111.694 0 114.24 0.474091 116.242 1.42227C118.244 2.33534 119.736 3.5469 120.719 5.05697C121.738 6.56704 122.3 8.20002 122.405 9.95591H118.349C118.138 8.20002 117.26 6.72507 115.715 5.53106C114.17 4.30194 111.799 3.68737 108.604 3.68737C106.637 3.68737 105.039 3.88052 103.81 4.26682C102.581 4.65311 101.633 5.16232 100.966 5.79445C100.333 6.39145 99.8945 7.02357 99.6487 7.69081C99.4379 8.35805 99.3326 8.99017 99.3326 9.58717C99.3326 10.7461 99.754 11.6942 100.597 12.4317C101.475 13.1341 102.616 13.7311 104.021 14.2227C105.461 14.6793 107.041 15.1007 108.762 15.487C110.483 15.8733 112.186 16.3122 113.871 16.8039C115.592 17.2604 117.155 17.8574 118.56 18.5949C119.999 19.2973 121.141 20.2103 121.984 21.3341C122.862 22.4579 123.301 23.8977 123.301 25.6536C123.301 28.8844 122.071 31.3778 119.613 33.1337C117.155 34.8545 113.784 35.7149 109.499 35.7149Z" fill="#3B3030"/>
<path d="M72.9942 35.7149C70.3604 35.7149 67.9548 35.2583 65.7775 34.3453C63.6002 33.4322 61.7214 32.1504 60.1411 30.4999C58.5959 28.8493 57.4019 26.9529 56.5591 24.8108C55.7162 22.6335 55.2948 20.3157 55.2948 17.8574C55.2948 15.3641 55.7162 13.0463 56.5591 10.9041C57.4019 8.7619 58.5959 6.86554 60.1411 5.215C61.7214 3.56446 63.6002 2.28266 65.7775 1.36959C67.9548 0.456531 70.3604 0 72.9942 0C75.628 0 78.0336 0.456531 80.2109 1.36959C82.3882 2.28266 84.2495 3.56446 85.7947 5.215C87.375 6.86554 88.5865 8.7619 89.4294 10.9041C90.2722 13.0463 90.6936 15.3641 90.6936 17.8574C90.6936 20.3157 90.2722 22.6335 89.4294 24.8108C88.5865 26.9529 87.375 28.8493 85.7947 30.4999C84.2495 32.1504 82.3882 33.4322 80.2109 34.3453C78.0336 35.2583 75.628 35.7149 72.9942 35.7149ZM72.9942 31.8694C75.8388 31.8694 78.2794 31.2549 80.3163 30.0258C82.3882 28.7615 83.9685 27.0759 85.0572 24.9688C86.181 22.8266 86.7428 20.4561 86.7428 17.8574C86.7428 15.2236 86.181 12.8531 85.0572 10.7461C83.9685 8.63899 82.3882 6.97089 80.3163 5.74177C78.2794 4.47752 75.8388 3.8454 72.9942 3.8454C70.1848 3.8454 67.7441 4.47752 65.6721 5.74177C63.6002 6.97089 62.0023 8.63899 60.8785 10.7461C59.7899 12.8531 59.2456 15.2236 59.2456 17.8574C59.2456 20.4561 59.7899 22.8266 60.8785 24.9688C62.0023 27.0759 63.6002 28.7615 65.6721 30.0258C67.7441 31.2549 70.1848 31.8694 72.9942 31.8694Z" fill="#3B3030"/>
<path d="M37.5831 35.7149C34.1415 35.7149 31.3497 35.2583 29.2075 34.3453C27.0653 33.3971 25.4499 32.0977 24.3612 30.4472C23.3077 28.7966 22.6931 26.9354 22.5175 24.8634H26.6263C26.7317 26.5491 27.2935 27.9187 28.312 28.9722C29.3304 29.9906 30.6649 30.7457 32.3154 31.2373C34.001 31.729 35.8447 31.9748 37.8465 31.9748C40.7963 31.9748 43.1317 31.4656 44.8525 30.4472C46.5732 29.3936 47.4336 27.8485 47.4336 25.8116C47.4336 24.5825 46.9947 23.5992 46.1167 22.8617C45.2739 22.0891 44.1325 21.457 42.6927 20.9654C41.288 20.4737 39.7428 20.0347 38.0572 19.6484C36.3715 19.227 34.6683 18.788 32.9475 18.3315C31.2619 17.875 29.6991 17.2955 28.2593 16.5932C26.8546 15.8908 25.7132 14.9953 24.8353 13.9067C23.9925 12.7829 23.571 11.3606 23.571 9.63985C23.571 6.7953 24.6597 4.47753 26.837 2.68652C29.0494 0.895505 32.333 0 36.6876 0C39.7779 0 42.324 0.474091 44.3257 1.42227C46.3274 2.33534 47.8199 3.5469 48.8032 5.05697C49.8216 6.56704 50.3835 8.20002 50.4889 9.95591H46.4328C46.2221 8.20002 45.3441 6.72507 43.7989 5.53106C42.2537 4.30194 39.8833 3.68737 36.6876 3.68737C34.721 3.68737 33.1231 3.88052 31.894 4.26682C30.6649 4.65311 29.7167 5.16232 29.0494 5.79445C28.4173 6.39145 27.9783 7.02357 27.7325 7.69081C27.5218 8.35805 27.4165 8.99017 27.4165 9.58717C27.4165 10.7461 27.8379 11.6942 28.6807 12.4317C29.5586 13.1341 30.7 13.7311 32.1047 14.2227C33.5445 14.6793 35.1248 15.1007 36.8456 15.487C38.5664 15.8733 40.2696 16.3122 41.9552 16.8039C43.676 17.2604 45.2388 17.8574 46.6435 18.5949C48.0833 19.2973 49.2246 20.2103 50.0675 21.3341C50.9454 22.4579 51.3844 23.8977 51.3844 25.6536C51.3844 28.8844 50.1553 31.3778 47.697 33.1337C45.2388 34.8545 41.8674 35.7149 37.5831 35.7149Z" fill="#3B3030"/>
<path d="M0 35.2936L8.8813 14.3704H11.8523L20.7336 35.2936H18.1103L15.5502 29.2252H5.18339L2.6233 35.2936H0ZM6.09997 27.0444H14.6336L10.3668 16.8356L6.09997 27.0444Z" fill="#FDAB81"/>
<path fill-rule="evenodd" clip-rule="evenodd" d="M65.744 11.9031C66.2363 12.7157 66.5815 13.8173 66.7592 14.7945C66.9188 15.6714 67.0246 16.6046 66.8365 17.3785C66.7397 17.7768 66.5615 18.1489 66.2622 18.4467C65.9624 18.7449 65.5692 18.9408 65.0861 19.0349C64.2125 19.2052 63.4709 18.9259 62.8765 18.4159C62.2955 17.9174 61.8539 17.2002 61.525 16.4651C61.0553 15.4157 61.0314 14.1819 61.3773 13.1209C61.7239 12.0577 62.4586 11.124 63.5455 10.7435C64.0122 10.5802 64.4538 10.6649 64.8329 10.9032C65.1969 11.1321 65.4983 11.4974 65.744 11.9031ZM66.9249 19.481C68.6318 18.3079 70.7214 17.4298 72.5436 17.6588C73.5272 17.7824 74.3373 18.3922 74.9931 19.1911C75.6489 19.9901 76.1819 21.0154 76.6128 22.0561C77.327 23.7808 77.7913 25.6279 78.0589 26.6925C78.1137 26.9105 78.1603 27.0957 78.1991 27.2403C78.3288 27.7244 78.3966 28.2926 78.3429 28.827C78.2899 29.3549 78.1104 29.9139 77.6828 30.2872C77.2402 30.6735 76.6278 30.779 75.8848 30.599C75.1503 30.4211 74.2416 29.9564 73.1194 29.1316C70.9849 27.5625 69.4274 27.2546 68.2723 27.3074C67.6858 27.3341 67.1846 27.4545 66.7309 27.5754C66.6794 27.5891 66.6276 27.6031 66.5755 27.6173C66.1941 27.7207 65.7984 27.828 65.4461 27.828C64.6424 27.828 63.8383 27.4068 63.3683 26.6313C62.8916 25.8446 62.7947 24.7583 63.2759 23.4948C63.5257 22.8391 64.0199 22.1272 64.6454 21.4446C65.276 20.7564 66.0622 20.0739 66.9249 19.481Z" fill="#FDAB81"/>
<path fill-rule="evenodd" clip-rule="evenodd" d="M72.6639 6.42593C73.143 7.41792 73.372 8.7652 73.372 9.79502C73.372 10.8252 73.1673 11.9631 72.6922 12.8543C72.2099 13.7588 71.4178 14.4518 70.2776 14.4187C69.241 14.3886 68.5033 13.8036 68.0198 13.0112C67.5457 12.2343 67.3022 11.2433 67.2098 10.305C66.9804 7.97668 68.207 6.21013 70.0928 5.21999C70.6524 4.92619 71.1926 4.94029 71.6607 5.21555C72.0996 5.47364 72.4253 5.93179 72.6639 6.42593ZM79.0644 7.16406C79.5057 7.15332 79.9554 7.26892 80.2883 7.61853C80.5858 7.93099 80.8135 8.44211 80.9698 8.99716C81.1304 9.56752 81.2321 10.2438 81.2417 10.9387C81.2604 12.3032 80.9213 13.8735 79.8069 14.7838C79.0864 15.3724 78.2412 15.8331 77.3772 15.9754C76.4991 16.12 75.6016 15.933 74.8417 15.2277C73.9891 14.4364 73.7924 13.3861 73.9555 12.3627C74.1158 11.3567 74.6234 10.3467 75.2226 9.51585C75.8319 8.67113 76.776 7.93014 77.6904 7.51729C78.1487 7.31042 78.6238 7.17478 79.0644 7.16406ZM83.166 16.2808L83.1984 16.2921C83.7176 16.4738 83.9955 16.9319 84.1121 17.4251C84.227 17.911 84.2035 18.484 84.0948 19.0482C83.8787 20.1703 83.2904 21.4304 82.464 22.1691C81.7816 22.779 81.0337 23.2661 80.2521 23.411C79.4394 23.5616 78.6391 23.3327 77.9139 22.6162C77.0619 21.7744 76.9522 20.6552 77.2094 19.6209C77.4637 18.5982 78.083 17.6032 78.7849 16.8662C79.527 16.0869 80.2991 15.806 81.0777 15.806C81.8101 15.806 82.5284 16.0575 83.166 16.2808Z" fill="#FDAB81"/>
<path fill-rule="evenodd" clip-rule="evenodd" d="M72.9942 31.8694C75.8388 31.8694 78.2794 31.2549 80.3163 30.0258C82.3882 28.7615 83.9685 27.0759 85.0572 24.9688C86.181 22.8266 86.7428 20.4561 86.7428 17.8574C86.7428 15.2236 86.181 12.8531 85.0572 10.7461C83.9685 8.63899 82.3882 6.97089 80.3163 5.74177C78.2794 4.47752 75.8388 3.8454 72.9942 3.8454C70.1848 3.8454 67.7441 4.47752 65.6721 5.74177C63.6002 6.97089 62.0023 8.63899 60.8785 10.7461C59.7899 12.8531 59.2456 15.2236 59.2456 17.8574C59.2456 20.4561 59.7899 22.8266 60.8785 24.9688C62.0023 27.0759 63.6002 28.7615 65.6721 30.0258C67.7441 31.2549 70.1848 31.8694 72.9942 31.8694ZM65.744 11.9031C66.2363 12.7157 66.5815 13.8173 66.7592 14.7945C66.9188 15.6714 67.0246 16.6046 66.8365 17.3785C66.7397 17.7768 66.5615 18.1489 66.2622 18.4467C65.9624 18.7449 65.5692 18.9408 65.0861 19.0349C64.2125 19.2052 63.4709 18.9259 62.8765 18.4159C62.2955 17.9174 61.8539 17.2002 61.525 16.4651C61.0553 15.4157 61.0314 14.1819 61.3773 13.1209C61.7239 12.0577 62.4586 11.124 63.5455 10.7435C64.0122 10.5802 64.4538 10.6649 64.8329 10.9032C65.1969 11.1321 65.4983 11.4974 65.744 11.9031ZM66.9249 19.481C68.6318 18.3079 70.7214 17.4298 72.5436 17.6588C73.5272 17.7824 74.3373 18.3922 74.9931 19.1911C75.6489 19.9901 76.1819 21.0154 76.6128 22.0561C77.327 23.7808 77.7913 25.6279 78.0589 26.6925C78.1137 26.9105 78.1603 27.0957 78.1991 27.2403C78.3288 27.7244 78.3966 28.2926 78.3429 28.827C78.2899 29.3549 78.1104 29.9139 77.6828 30.2872C77.2402 30.6735 76.6278 30.779 75.8848 30.599C75.1503 30.4211 74.2416 29.9564 73.1194 29.1316C70.9849 27.5625 69.4274 27.2546 68.2723 27.3074C67.6858 27.3341 67.1846 27.4545 66.7309 27.5754C66.6794 27.5891 66.6276 27.6031 66.5755 27.6173C66.1941 27.7207 65.7984 27.828 65.4461 27.828C64.6424 27.828 63.8383 27.4068 63.3683 26.6313C62.8916 25.8446 62.7947 24.7583 63.2759 23.4948C63.5257 22.8391 64.0199 22.1272 64.6454 21.4446C65.276 20.7564 66.0622 20.0739 66.9249 19.481ZM72.6639 6.42593C73.143 7.41792 73.372 8.7652 73.372 9.79502C73.372 10.8252 73.1673 11.9631 72.6922 12.8543C72.2099 13.7588 71.4178 14.4518 70.2776 14.4187C69.241 14.3886 68.5033 13.8036 68.0198 13.0112C67.5457 12.2343 67.3022 11.2433 67.2098 10.305C66.9804 7.97668 68.207 6.21013 70.0928 5.21999C70.6524 4.92619 71.1926 4.94029 71.6607 5.21555C72.0996 5.47364 72.4253 5.93179 72.6639 6.42593ZM79.0644 7.16406C79.5057 7.15332 79.9554 7.26892 80.2883 7.61853C80.5858 7.93099 80.8135 8.44211 80.9698 8.99716C81.1304 9.56752 81.2321 10.2438 81.2417 10.9387C81.2604 12.3032 80.9213 13.8735 79.8069 14.7838C79.0864 15.3724 78.2412 15.8331 77.3772 15.9754C76.4991 16.12 75.6016 15.933 74.8417 15.2277C73.9891 14.4364 73.7924 13.3861 73.9555 12.3627C74.1158 11.3567 74.6234 10.3467 75.2226 9.51585C75.8319 8.67113 76.776 7.93014 77.6904 7.51729C78.1487 7.31042 78.6238 7.17478 79.0644 7.16406ZM83.166 16.2808L83.1984 16.2921C83.7176 16.4738 83.9955 16.9319 84.1121 17.4251C84.227 17.911 84.2035 18.484 84.0948 19.0482C83.8787 20.1703 83.2904 21.4304 82.464 22.1691C81.7816 22.779 81.0337 23.2661 80.2521 23.411C79.4394 23.5616 78.6391 23.3327 77.9139 22.6162C77.0619 21.7744 76.9522 20.6552 77.2094 19.6209C77.4637 18.5982 78.083 17.6032 78.7849 16.8662C79.527 16.0869 80.2991 15.806 81.0777 15.806C81.8101 15.806 82.5284 16.0575 83.166 16.2808Z" fill="#936C6C"/>
</svg>
