<svg width="436" height="515" viewBox="0 0 436 515" fill="none" xmlns="http://www.w3.org/2000/svg">
<path fill-rule="evenodd" clip-rule="evenodd" d="M332.991 114.148C326.519 131.534 323.927 153.926 324.09 173.318C324.235 190.721 325.618 209.008 332.054 223.164C335.368 230.451 340.145 236.936 346.976 241.554C353.815 246.177 362.075 248.497 371.684 248.537C389.063 248.61 402.266 240.541 411.802 228.586C421.125 216.899 426.972 201.528 430.594 186.226C435.766 164.381 431.714 140.629 421.2 121.543C410.666 102.417 393.16 87.1923 370.921 83.8687C361.373 82.4418 353.212 85.6814 346.813 91.6387C340.667 97.3601 336.222 105.468 332.991 114.148ZM338.046 263.815C301.017 247.554 257.726 238.351 223.612 249.406C205.198 255.373 191.888 270.03 182.231 287.75C172.573 305.475 166.099 327.089 161.638 348.626C154.245 384.317 152.091 421.443 150.85 442.843C150.595 447.224 150.379 450.946 150.165 453.862C149.445 463.622 150.223 474.769 153.206 484.822C156.153 494.753 161.64 504.82 171.205 510.416C181.108 516.209 193.24 515.992 206.833 509.824C220.271 503.726 236.002 491.491 254.51 471.567C289.716 433.668 318.464 422.069 340.813 418.857C352.161 417.226 362.214 417.702 371.359 418.362C372.395 418.437 373.441 418.517 374.492 418.598C382.186 419.187 390.167 419.799 396.926 418.511C412.341 415.573 426.224 404.555 432.403 387.961C438.672 371.128 436.56 349.939 422.709 327.463C415.521 315.799 403.439 303.952 388.946 293.145C374.335 282.251 356.76 272.034 338.046 263.815Z" fill="#FFF6EE"/>
<path fill-rule="evenodd" clip-rule="evenodd" d="M180.239 34.3897C174.677 55.1682 175.209 81.8476 178.973 101.6C182.74 121.36 190.826 142.437 203.198 157.794C215.754 173.381 233.482 183.777 255.231 178.973C275.003 174.606 287.014 160.689 293.392 143.723C299.645 127.088 300.692 107.19 299.034 88.8535C294.922 43.3562 264.936 13.9567 225.146 1.85929C213.339 -1.7304 203.028 0.515237 195.056 7.50613C187.58 14.0612 183.009 24.0393 180.239 34.3897ZM60.1701 71.9471C51.6669 73.3544 43.4649 77.2155 38.3573 85.1385C33.7923 92.2196 31.2934 102.856 30.3254 114.073C29.3307 125.6 29.8515 138.945 32.2089 152.308C36.8376 178.547 49.0826 207.429 73.785 220.815C89.7577 229.47 107.652 235.216 124.745 234.787C142.117 234.35 158.647 227.482 170.645 211.177C184.106 192.881 184.038 172.017 177.169 152.984C170.417 134.274 156.987 116.756 142.457 103.011C127.683 89.0363 106.865 78.2749 87.8157 73.6993C78.2705 71.4065 68.6613 70.5418 60.1701 71.9471ZM14.8273 261.808L14.2476 262.144C4.95393 267.528 1.29916 277.33 0.864615 287.215C0.436494 296.955 2.98236 307.86 7.13007 318.285C15.3782 339.018 31.2683 361.036 49.8208 372.184C65.1388 381.389 81.2657 387.996 96.7857 387.918C112.926 387.836 127.438 380.519 138.73 364.124C151.994 344.865 150.006 322.996 141.291 304.097C132.675 285.412 117.159 268.591 101.002 257.02C83.9181 244.786 68.0816 242.221 53.1475 245.067C39.0996 247.745 26.2423 255.194 14.8273 261.808Z" fill="#FFF6EE"/>
</svg>
