<svg viewBox="0 0 29 33" fill="none" xmlns="http://www.w3.org/2000/svg">
<path fill-rule="evenodd" clip-rule="evenodd" d="M6.5225 9.27848C7.11327 10.2536 7.52743 11.5755 7.74075 12.7481C7.93218 13.8004 8.05916 14.9203 7.83347 15.8489C7.71728 16.327 7.50352 16.7735 7.14426 17.1308C6.7846 17.4886 6.31265 17.7237 5.73303 17.8367C4.68467 18.0411 3.79478 17.7058 3.08153 17.0939C2.38424 16.4956 1.85441 15.635 1.45963 14.7528C0.896093 13.4936 0.867406 12.0131 1.28246 10.7399C1.69837 9.46405 2.58001 8.34352 3.88433 7.88698C4.44431 7.69097 4.97423 7.79265 5.4291 8.07865C5.86597 8.35333 6.22759 8.79168 6.5225 9.27848ZM7.93952 18.372C9.98779 16.9642 12.4954 15.9105 14.682 16.1854C15.8623 16.3337 16.8345 17.0654 17.6213 18.024C18.4084 18.9829 19.0479 20.2133 19.565 21.4621C20.422 23.5317 20.9792 25.7482 21.3004 27.0258C21.3662 27.2874 21.4221 27.5096 21.4686 27.6832C21.6243 28.2641 21.7056 28.9459 21.6412 29.5872C21.5776 30.2206 21.3622 30.8915 20.8491 31.3394C20.3179 31.803 19.583 31.9296 18.6915 31.7136C17.81 31.5001 16.7196 30.9425 15.373 29.9526C12.8115 28.0698 10.9426 27.7003 9.55642 27.7636C8.85259 27.7957 8.25116 27.9401 7.70671 28.0852C7.645 28.1017 7.58279 28.1185 7.52026 28.1355C7.06259 28.2596 6.58778 28.3884 6.16497 28.3884C5.20054 28.3884 4.23566 27.883 3.67169 26.9523C3.09958 26.0082 2.98326 24.7048 3.56081 23.1886C3.86053 22.4017 4.45358 21.5475 5.20418 20.7283C5.96088 19.9025 6.9043 19.0835 7.93952 18.372Z" fill="#FDAB81"/>
<path fill-rule="evenodd" clip-rule="evenodd" d="M14.8264 2.70589C15.4012 3.89627 15.6761 5.51301 15.6761 6.74879C15.6761 7.98503 15.4305 9.35044 14.8603 10.4199C14.2816 11.5054 13.331 12.3369 11.9628 12.2972C10.7189 12.2611 9.83365 11.5591 9.25341 10.6083C8.68449 9.67596 8.39235 8.48677 8.28142 7.36075C8.00618 4.56678 9.47811 2.44693 11.741 1.25876C12.4125 0.906197 13.0608 0.923122 13.6225 1.25343C14.1492 1.56314 14.54 2.11292 14.8264 2.70589ZM22.507 3.59164C23.0365 3.57875 23.5761 3.71747 23.9756 4.13701C24.3327 4.51196 24.6059 5.1253 24.7934 5.79137C24.9861 6.47579 25.1082 7.28738 25.1197 8.12126C25.1422 9.75856 24.7353 11.643 23.398 12.7354C22.5333 13.4417 21.5192 13.9945 20.4824 14.1652C19.4286 14.3387 18.3516 14.1143 17.4397 13.268C16.4166 12.3184 16.1806 11.0581 16.3763 9.83006C16.5686 8.62284 17.1778 7.41077 17.8968 6.41379C18.6279 5.40013 19.7609 4.51094 20.8582 4.01552C21.4081 3.76728 21.9782 3.60451 22.507 3.59164ZM27.4289 14.5317L27.4678 14.5453C28.0908 14.7634 28.4242 15.3131 28.5642 15.9049C28.7021 16.4879 28.6739 17.1755 28.5435 17.8526C28.2841 19.1992 27.5782 20.7112 26.5864 21.5977C25.7676 22.3296 24.8701 22.9141 23.9322 23.0879C22.9569 23.2687 21.9966 22.994 21.1263 22.1342C20.1039 21.1241 19.9723 19.781 20.281 18.5398C20.5861 17.3127 21.3293 16.1187 22.1715 15.2342C23.0621 14.2991 23.9886 13.962 24.9229 13.962C25.8018 13.962 26.6637 14.2638 27.4289 14.5317Z" fill="#FDAB81"/>
</svg>
